PathFileType	4	(X/Y/Z)	C:\Git\research_data\ESMAC_2023\simulations\TD07\pre\dynamic21_l\marker_experimental.trc
DataRate	CameraRate	NumFrames	NumMarkers	Units	OrigDataRate	OrigDataStartFrame	OrigNumFrames
200.000000	200.000000	6	54	mm	200.000000	240	385
Frame#	Time	C7			T10			CLAV			STRN			RBAK			LASI			RASI			SACR			RT2			RT3			RKNE			RS1			RS2			RS3			RANK			RHEE			RTOE			RM5D			LT1			LT2			LT3			LKNE			LS1			LS2			LS3			LANK			LHEE			LTOE			LM5D			RT1			*30			*31			*32			*33			*34			*35			*36			*37			*38			*39			*40			*41			*42			*43			*44			*45			*46			*47			*48			*49			*50			*51			*52			*53			
		X1	Y1	Z1	X2	Y2	Z2	X3	Y3	Z3	X4	Y4	Z4	X5	Y5	Z5	X6	Y6	Z6	X7	Y7	Z7	X8	Y8	Z8	X9	Y9	Z9	X10	Y10	Z10	X11	Y11	Z11	X12	Y12	Z12	X13	Y13	Z13	X14	Y14	Z14	X15	Y15	Z15	X16	Y16	Z16	X17	Y17	Z17	X18	Y18	Z18	X19	Y19	Z19	X20	Y20	Z20	X21	Y21	Z21	X22	Y22	Z22	X23	Y23	Z23	X24	Y24	Z24	X25	Y25	Z25	X26	Y26	Z26	X27	Y27	Z27	X28	Y28	Z28	X29	Y29	Z29	X30	Y30	Z30	X31	Y31	Z31	X32	Y32	Z32	X33	Y33	Z33	X34	Y34	Z34	X35	Y35	Z35	X36	Y36	Z36	X37	Y37	Z37	X38	Y38	Z38	X39	Y39	Z39	X40	Y40	Z40	X41	Y41	Z41	X42	Y42	Z42	X43	Y43	Z43	X44	Y44	Z44	X45	Y45	Z45	X46	Y46	Z46	X47	Y47	Z47	X48	Y48	Z48	X49	Y49	Z49	X50	Y50	Z50	X51	Y51	Z51	X52	Y52	Z52	X53	Y53	Z53	X54	Y54	Z54	

241	1.2	1027.25439453125	1227.24658203125	229.3827514648439	1001.650756835937	1003.476806640625	216.0760192871095	1154.070190429688	1172.340576171875	215.2372436523439	1202.919067382812	1037.642944335938	208.7257080078127	1006.457336425781	1093.539184570312	336.3413696289064	1151.701416015625	791.5212402343751	99.28835296630881	1122.250122070312	816.1911010742189	352.0339660644534	981.8756103515625	847.1302490234376	201.1591949462892	953.3872680664061	533.1890869140626	348.0331115722658	1005.446228027344	521.2697753906251	349.9405212402345	973.3754882812499	418.6565246582032	326.4996337890627	898.2357788085936	336.9083557128907	340.9867553710939	845.7509765624999	295.8778991699219	340.9997863769533	895.0348510742186	271.3287963867188	336.1734619140627	802.6021728515625	94.10650634765629	299.0819396972658	740.005859375	73.20256805419926	262.3304748535157	936.5119018554688	43.39836120605474	261.2442016601564	859.3609619140625	37.5166511535645	307.656707763672	1200.865966796875	622.5380249023439	67.05605316162132	1206.396606445312	556.6347656250001	64.31233215332054	1245.403442382812	578.7159423828126	90.63199615478538	1283.78759765625	441.8012695312501	93.9741592407229	1343.300048828125	331.1145935058594	76.55534362792993	1341.149047851562	266.9437561035157	62.32564926147486	1385.136474609375	280.2936096191407	85.45840454101588	1430.435180664062	102.5978164672852	88.15069580078151	1404.603271484375	62.70669555664071	125.8147430419924	1579.495361328125	151.1790618896485	117.863822937012	1525.067626953125	102.6825637817384	71.655815124512	993.1151733398436	580.6919555664064	362.9359436035158	nan	nan	nan	nan	nan	nan	nan	nan	nan	nan	nan	nan	nan	nan	nan	nan	nan	nan	nan	nan	nan	nan	nan	nan	nan	nan	nan	nan	nan	nan	nan	nan	nan	nan	nan	nan	nan	nan	nan	nan	nan	nan	nan	nan	nan	nan	nan	nan	nan	nan	nan	nan	nan	nan	nan	nan	nan	nan	nan	nan	nan	nan	nan	nan	nan	nan	nan	nan	nan	nan	nan	nan	
242	1.205	1034.227783203125	1225.97607421875	228.6194610595705	1008.947387695312	1002.287841796875	215.6092529296877	1161.08837890625	1171.344848632812	214.2699890136721	1210.112060546875	1036.658325195312	207.6050415039065	1013.705627441406	1092.317993164062	335.568572998047	1158.436401367188	790.3295288085939	98.58111572265646	1129.515380859375	814.9801025390626	351.4098205566409	988.9487915039062	846.2796020507814	200.800491333008	958.6162719726561	532.9386596679689	347.8476562500002	1010.55810546875	520.6270751953126	349.7244873046877	977.7310791015624	418.2631835937501	326.3701477050783	901.8588256835936	337.2522888183594	341.0103149414064	848.8894653320311	296.8471984863282	341.0650939941408	897.8978271484374	271.7239379882813	336.1767578125002	803.4988403320312	95.46730804443364	299.3584899902345	740.6522827148438	75.2681045532227	262.6779174804689	936.7064819335938	43.30900573730474	261.2994995117189	859.7205200195312	37.96529388427739	307.8183593750002	1209.297485351562	622.8611450195314	66.98423767089866	1215.39013671875	557.0725708007814	64.0758972167971	1253.885498046875	579.4326782226564	91.10407257080101	1292.319946289062	441.7196350097657	93.8314361572268	1351.287841796875	330.6443176269532	76.39858245849634	1348.82275390625	266.5439147949219	62.0350837707522	1392.786987304688	279.6106262207032	85.32363891601588	1437.27685546875	101.6795730590821	87.9469299316409	1411.085815429688	61.88536071777352	125.4439315795901	1586.239379882812	149.648162841797	118.4212341308597	1532.008178710938	101.3572235107423	71.95841217041044	998.3247070312499	580.4555664062501	362.7547302246095	nan	nan	nan	nan	nan	nan	nan	nan	nan	nan	nan	nan	nan	nan	nan	nan	nan	nan	nan	nan	nan	nan	nan	nan	nan	nan	nan	nan	nan	nan	nan	nan	nan	nan	nan	nan	nan	nan	nan	nan	nan	nan	nan	nan	nan	nan	nan	nan	nan	nan	nan	nan	nan	nan	nan	nan	nan	nan	nan	nan	nan	nan	nan	nan	nan	nan	nan	nan	nan	nan	nan	nan	
243	1.21	1041.25537109375	1224.733764648438	227.8200073242189	1016.311828613281	1001.130676269531	215.1452941894533	1168.166137695312	1170.391235351562	213.2701416015627	1217.374145507812	1035.71630859375	206.462097167969	1021.026306152344	1091.150512695312	334.7790527343752	1165.242065429688	789.2086181640626	97.85741424560568	1136.861572265625	813.7735595703126	350.782409667969	996.0960693359375	845.4573364257814	200.4341583251955	963.9889526367186	532.6712646484376	347.6379699707033	1015.782775878906	519.9857788085939	349.472137451172	982.2388916015624	417.8731994628907	326.2213745117189	905.6185913085936	337.6342773437501	341.0267333984377	852.1890869140624	297.8265686035157	341.1575012207033	900.8964233398436	272.1535644531251	336.1723632812502	804.4647827148438	96.9182510375977	299.6618041992189	741.3645629882812	77.45986938476567	263.0597229003907	936.9215698242188	43.22153472900396	261.360321044922	860.1203002929688	38.46016693115239	307.9940185546877	1217.761108398438	623.1934814453126	66.90387725830101	1224.354736328125	557.5383300781251	63.81472396850609	1262.382080078125	580.1142578125001	91.53936004638695	1300.866088867188	441.6105957031251	93.66143035888696	1359.133056640625	330.0216064453126	76.26105499267604	1356.23291015625	265.9949340820313	61.79421997070337	1400.212036132812	278.7093200683595	85.1982040405276	1443.59033203125	100.5009918212891	87.79430389404324	1416.994506835938	60.88364791870126	125.1542587280276	1592.492553710938	147.6226043701173	118.8642425537112	1538.355590820312	99.59855651855479	72.22010803222685	1003.6748046875	580.2022705078126	362.549041748047	nan	nan	nan	nan	nan	nan	nan	nan	nan	nan	nan	nan	nan	nan	nan	nan	nan	nan	nan	nan	nan	nan	nan	nan	nan	nan	nan	nan	nan	nan	nan	nan	nan	nan	nan	nan	nan	nan	nan	nan	nan	nan	nan	nan	nan	nan	nan	nan	nan	nan	nan	nan	nan	nan	nan	nan	nan	nan	nan	nan	nan	nan	nan	nan	nan	nan	nan	nan	nan	nan	nan	nan	
244	1.215	1048.337646484375	1223.520629882812	226.9861907958986	1023.742919921875	1000.006713867188	214.6838836669924	1175.304443359375	1169.478515625	212.2379150390627	1224.705444335938	1034.816040039062	205.2967376708987	1028.421020507812	1090.036499023438	333.9740600585939	1172.120483398438	788.1609497070314	97.11831665039084	1144.289794921875	812.5717163085939	350.1509094238284	1003.317810058594	844.6626586914064	200.058807373047	969.5100708007811	532.3851928710939	347.402557373047	1021.13134765625	519.3453979492189	349.1810913085939	986.9028930664061	417.4842834472657	326.052703857422	909.5128173828124	338.0551452636719	341.0314331054689	855.6463012695311	298.8101501464844	341.2656250000002	904.0305786132811	272.6185913085938	336.1572875976564	805.5018310546875	98.46144104003911	299.9871215820314	742.1470947265625	79.78028106689457	263.468475341797	937.1588134765625	43.1374130249024	261.4261474609377	860.5592041015625	39.00254821777349	308.1802368164064	1226.2255859375	623.5070800781251	66.80548095703148	1233.249755859375	558.0095825195314	63.52202606201195	1270.868896484375	580.7404174804689	91.91648864746116	1309.40283203125	441.4667968750001	93.45943450927759	1366.83447265625	329.2519531250001	76.14055633544947	1363.387084960938	265.3002319335938	61.6053848266604	1407.41943359375	277.602508544922	85.08201599121119	1449.406127929688	99.08557128906259	87.68760681152371	1422.357421875	59.73128509521493	124.9378967285159	1598.28564453125	145.116928100586	119.1956787109378	1544.139770507812	97.42636108398447	72.44207763671903	1009.171508789062	579.9291992187501	362.3171997070314	nan	nan	nan	nan	nan	nan	nan	nan	nan	nan	nan	nan	nan	nan	nan	nan	nan	nan	nan	nan	nan	nan	nan	nan	nan	nan	nan	nan	nan	nan	nan	nan	nan	nan	nan	nan	nan	nan	nan	nan	nan	nan	nan	nan	nan	nan	nan	nan	nan	nan	nan	nan	nan	nan	nan	nan	nan	nan	nan	nan	nan	nan	nan	nan	nan	nan	nan	nan	nan	nan	nan	nan	
245	1.22	1055.474487304688	1222.337890625	226.1198425292971	1031.23876953125	998.9174804687501	214.2247924804689	1182.504150390625	1168.606079101562	211.1736602783205	1232.105590820312	1033.956665039062	204.1089935302737	1035.890502929688	1088.975341796875	333.1543884277345	1179.072265625	787.1893310546876	96.36459350585959	1151.800659179688	811.3746948242189	349.5138244628909	1010.613525390625	843.8945922851564	199.6739654541018	975.1835327148436	532.0785522460939	347.1394348144533	1026.614990234375	518.7051391601564	348.8498535156252	991.7268066406249	417.0935974121094	325.8642578125002	913.5391845703124	338.5148620605469	341.0206298828127	859.2550659179686	299.7946777343751	341.3763732910158	907.2989501953124	273.1200561523438	336.1292114257814	806.612060546875	100.0985870361329	300.3297729492189	743.0045166015625	82.23135375976567	263.8968811035157	937.4193115234375	43.05810165405279	261.4963989257814	861.0360717773438	39.59350967407232	308.3739013671877	1234.662231445312	623.7750244140626	66.67646789550804	1242.037963867188	558.4631347656251	63.18925857543968	1279.322875976562	581.2946166992189	92.21263885498071	1317.908203125	441.2817382812501	93.21968841552759	1374.390747070312	328.3430480957032	76.03332519531276	1370.294067382812	264.4651794433594	61.47099304199244	1414.417358398438	276.306121826172	84.97428894042994	1454.7578125	97.46198272705087	87.62242889404324	1427.206665039062	58.46347045898446	124.7878723144534	1603.652709960938	142.1487426757813	119.4197692871097	1549.393432617188	94.86626434326182	72.62715911865263	1014.820739746094	579.6334838867189	362.0569763183595	nan	nan	nan	nan	nan	nan	nan	nan	nan	nan	nan	nan	nan	nan	nan	nan	nan	nan	nan	nan	nan	nan	nan	nan	nan	nan	nan	nan	nan	nan	nan	nan	nan	nan	nan	nan	nan	nan	nan	nan	nan	nan	nan	nan	nan	nan	nan	nan	nan	nan	nan	nan	nan	nan	nan	nan	nan	nan	nan	nan	nan	nan	nan	nan	nan	nan	nan	nan	nan	nan	nan	nan	
246	1.225	1062.665649414062	1221.186767578125	225.2227478027346	1038.796997070312	997.8645019531251	213.7677612304689	1189.76513671875	1167.772827148438	210.0778045654299	1239.574096679688	1033.137573242188	202.8989715576174	1043.43505859375	1087.966674804688	332.3206176757814	1186.095947265625	786.2969360351564	95.59669494628928	1159.394897460938	810.1824951171876	348.8689575195315	1017.981506347656	843.1520385742189	199.2801513671877	981.0123291015624	531.7498168945314	346.8458557128908	1032.243896484375	518.0641479492189	348.4775695800783	996.7139892578124	416.6979064941407	325.6570129394533	917.6959228515624	339.0125427246094	340.9915161132814	863.0081176757811	300.7798767089844	341.4764709472658	910.6995239257811	273.6588134765626	336.0867004394533	807.7979125976562	101.8309707641602	300.6856384277345	743.942626953125	84.81468963623051	264.338104248047	937.7039184570312	42.98490905761724	261.570281982422	861.5498046875	40.23398208618169	308.5722961425783	1243.04443359375	623.9718017578126	66.50146484375023	1250.686401367188	558.8743286132814	62.80688476562523	1287.720947265625	581.7626342773439	92.40342712402368	1326.361938476562	441.0504455566407	92.93575286865259	1381.801635742188	327.3051147460938	75.9342880249026	1376.963500976562	263.4973144531251	61.3930397033694	1421.21533203125	274.8389282226564	84.87360382080104	1459.681396484375	95.66361236572274	87.59489440917996	1431.577758789062	57.11981201171884	124.6975250244143	1608.631713867188	138.7389068603516	119.5428009033206	1554.151489257812	91.94982147216807	72.77950286865263	1020.628601074219	579.3118896484376	361.7655639648439	nan	nan	nan	nan	nan	nan	nan	nan	nan	nan	nan	nan	nan	nan	nan	nan	nan	nan	nan	nan	nan	nan	nan	nan	nan	nan	nan	nan	nan	nan	nan	nan	nan	nan	nan	nan	nan	nan	nan	nan	nan	nan	nan	nan	nan	nan	nan	nan	nan	nan	nan	nan	nan	nan	nan	nan	nan	nan	nan	nan	nan	nan	nan	nan	nan	nan	nan	nan	nan	nan	nan	nan	
